:FULLY-SPECIFIED
:FORCE-ALL-JOINTS-BE-3DOF
:DEGREES
544
root 8.13969 14.1307 -3.57642 -179.789 48.0194 -182.274
lfemur -33.0822 -5.8561 -16.1361
ltibia 86.6144 0 0
lfoot -38.2598 -10.7854 0
ltoes -4.14193 0 0
rfemur -48.9488 -6.58737 -3.1443
rtibia 62.3095 0 0
rfoot -7.2978 1.73805 0
rtoes -38.773 0 0
lowerback 12.8569 0.656389 1.69278
upperback 6.6304 1.98282 6.80344
thorax -0.424505 1.26318 5.93378
lowerneck -2.42201 -15.6816 -5.90765
upperneck 8.90871 -21.2454 8.26793
head 4.59173 -10.2892 2.16391
lclavicle 7.75828e-14 7.04265e-15 0
lhumerus -45.707 -13.5641 104.677
lradius 55.9697 0 0
lwrist 29.6577 0 0
lhand -23.3965 -3.27049 0
lfingers 7.12502 0 0
lthumb 3.0597 26.6663 0
rclavicle 7.75828e-14 7.04265e-15 0
rhumerus 7.34428 18.5983 -87.3275
rradius 134.999 0 0
rwrist -45.2959 0 0
rhand -28.0605 -22.6016 0
rfingers 7.12502 0 0
rthumb -1.44439 -772.558 0
545
root 8.20732 14.062 -3.53417 -180.077 47.4787 -182.472
lfemur -33.2704 -5.86613 -15.7759
ltibia 87.3898 0 0
lfoot -38.7034 -11.6396 0
ltoes -3.96236 0 0
rfemur -48.9991 -7.10175 -3.04615
rtibia 63.3807 0 0
rfoot -8.45073 1.24529 0
rtoes -38.8796 0 0
lowerback 12.9 0.63911 1.6826
upperback 6.74443 1.969 6.80405
thorax -0.326925 1.26072 5.94362
lowerneck -2.22509 -15.6673 -5.86547
upperneck 8.67328 -21.2426 8.44838
head 4.50173 -10.2888 2.23588
lclavicle 8.45876e-14 6.81547e-15 0
lhumerus -45.808 -12.7711 104.128
lradius 55.7195 0 0
lwrist 30.3021 0 0
lhand -23.8135 -3.06179 0
lfingers 7.12502 0 0
lthumb 2.65713 26.8867 0
rclavicle 8.45876e-14 6.81547e-15 0
rhumerus 6.92483 18.9889 -88.012
rradius 134.906 0 0
rwrist -45.1278 0 0
rhand -28.4613 -22.6828 0
rfingers 7.12502 0 0
rthumb -1.83149 -772.641 0
546
root 8.27496 13.9932 -3.49191 -180.365 46.938 -182.67
lfemur -33.4587 -5.87616 -15.4158
ltibia 88.1653 0 0
lfoot -39.147 -12.4939 0
ltoes -3.7828 0 0
rfemur -49.0494 -7.61614 -2.94801
rtibia 64.4519 0 0
rfoot -9.60367 0.752536 0
rtoes -38.9863 0 0
lowerback 12.943 0.621831 1.67243
upperback 6.85847 1.95518 6.80466
thorax -0.229346 1.25827 5.95347
lowerneck -2.02817 -15.6531 -5.82328
upperneck 8.43786 -21.2398 8.62882
head 4.41172 -10.2885 2.30786
lclavicle 9.15924e-14 6.58829e-15 0
lhumerus -45.909 -11.9781 103.58
lradius 55.4694 0 0
lwrist 30.9465 0 0
lhand -24.2305 -2.8531 0
lfingers 7.12502 0 0
lthumb 2.25455 27.107 0
rclavicle 9.15924e-14 6.58829e-15 0
rhumerus 6.50539 19.3796 -88.6965
rradius 134.813 0 0
rwrist -44.9596 0 0
rhand -28.8622 -22.7639 0
rfingers 7.12502 0 0
rthumb -2.2186 -772.725 0
547
root 8.3426 13.9245 -3.44966 -180.653 46.3973 -182.868
lfemur -33.6469 -5.88619 -15.0556
ltibia 88.9407 0 0
lfoot -39.5906 -13.3481 0
ltoes -3.60323 0 0
rfemur -49.0997 -8.13052 -2.84987
rtibia 65.5231 0 0
rfoot -10.7566 0.259778 0
rtoes -39.0929 0 0
lowerback 12.986 0.604552 1.66225
upperback 6.9725 1.94136 6.80527
thorax -0.131767 1.25582 5.96331
lowerneck -1.83125 -15.6388 -5.78109
upperneck 8.20244 -21.237 8.80926
head 4.32172 -10.2881 2.37983
lclavicle 9.85972e-14 6.36111e-15 0
lhumerus -46.01 -11.1851 103.032
lradius 55.2192 0 0
lwrist 31.5909 0 0
lhand -24.6475 -2.6444 0
lfingers 7.12502 0 0
lthumb 1.85197 27.3273 0
rclavicle 9.85972e-14 6.36111e-15 0
rhumerus 6.08594 19.7702 -89.381
rradius 134.72 0 0
rwrist -44.7914 0 0
rhand -29.263 -22.8451 0
rfingers 7.12502 0 0
rthumb -2.6057 -772.809 0
